<svg xmlns="http://www.w3.org/2000/svg" width="19" height="19" viewBox="0 0 19 19" fill="none">
  <path d="M17.86 9.69727C17.86 9.07977 17.8046 8.48602 17.7017 7.91602H9.5V11.2846H14.1867C13.9848 12.3731 13.3713 13.2954 12.449 13.9129V16.0979H15.2633C16.91 14.5818 17.86 12.3493 17.86 9.69727Z" fill="#4285F4"/>
  <path d="M9.50083 18.208C11.8521 18.208 13.8233 17.4283 15.2642 16.0983L12.4498 13.9133C11.67 14.4358 10.6725 14.7445 9.50083 14.7445C7.23271 14.7445 5.31292 13.2126 4.62812 11.1543H1.71875V13.4105C3.15167 16.2566 6.09667 18.208 9.50083 18.208Z" fill="#34A853"/>
  <path d="M4.62859 11.1553C4.45443 10.6328 4.35547 10.0746 4.35547 9.50068C4.35547 8.92672 4.45443 8.36859 4.62859 7.84609V5.58984H1.71922C1.10964 6.80336 0.792432 8.14266 0.792969 9.50068C0.792969 10.9059 1.12943 12.2359 1.71922 13.4115L4.62859 11.1553Z" fill="#FBBC05"/>
  <path d="M9.50083 4.25456C10.7794 4.25456 11.9273 4.69393 12.8298 5.55685L15.3275 3.05914C13.8194 1.65393 11.8481 0.791016 9.50083 0.791016C6.09667 0.791016 3.15167 2.74247 1.71875 5.58852L4.62812 7.84477C5.31292 5.78643 7.23271 4.25456 9.50083 4.25456Z" fill="#EA4335"/>
</svg>